<svg width="512" height="512" viewBox="0 0 512 512" fill="none" xmlns="http://www.w3.org/2000/svg">
	<path d="M419.84 20.48C380.314 20.48 348.16 52.6336 348.16 92.16C348.16 111.061 355.565 128.22 367.56 141.04L281.86 245.76H163.02C158.024 211.081 128.2 184.32 92.16 184.32C52.6336 184.32 20.48 216.474 20.48 256C20.48 295.526 52.6336 327.68 92.16 327.68C128.2 327.68 158.024 300.919 163.02 266.24H281.62L363.86 375.18C354.053 387.443 348.16 402.952 348.16 419.84C348.16 459.366 380.314 491.52 419.84 491.52C459.366 491.52 491.52 459.366 491.52 419.84C491.52 380.314 459.366 348.16 419.84 348.16C404.613 348.16 390.522 352.973 378.9 361.1L299.74 256.26L383.52 153.84C394.188 160.147 406.573 163.84 419.84 163.84C459.366 163.84 491.52 131.686 491.52 92.16C491.52 52.6336 459.366 20.48 419.84 20.48Z" fill="#D91111" />
</svg>
